<svg width="29" height="22" viewBox="0 0 29 22" fill="none" xmlns="http://www.w3.org/2000/svg">
<g clip-path="url(#clip0_32_15)">
<path d="M27.3765 17.865C27.3614 18.9556 26.6418 19.9548 25.59 20.2772C25.2102 20.3943 24.9265 20.3975 24.5123 20.3975C23.4777 20.3975 22.4442 20.3975 21.4097 20.3975C17.8098 20.3975 14.2088 20.3975 10.6088 20.3975C8.44372 20.3975 6.26781 20.4592 4.10376 20.3964C3.04654 20.3656 2.06593 19.6313 1.752 18.6354C1.62147 18.2193 1.6301 17.8905 1.6301 17.4287C1.6301 16.0815 1.6301 14.7344 1.6301 13.3873C1.6301 10.361 1.6301 7.33369 1.6301 4.30742C1.6301 3.63066 1.74876 3.10288 2.1943 2.54423C2.45968 2.21224 2.95916 1.86109 3.41657 1.72063C3.7456 1.61954 3.90418 1.60145 4.23968 1.60039C5.01965 1.59719 5.79961 1.60039 6.57958 1.60039C10.0684 1.60039 13.5561 1.60039 17.0449 1.60039C19.5952 1.60039 22.1443 1.59507 24.6946 1.60039C26.2006 1.60358 27.3711 2.70172 27.3775 4.19357C27.3818 5.24382 27.3775 6.29301 27.3775 7.34326C27.3775 10.6302 27.3775 13.9172 27.3775 17.2042C27.3765 17.4244 27.3765 17.6447 27.3765 17.865C27.3765 18.8939 28.9979 18.8961 28.9979 17.865C28.9979 15.1122 28.9979 12.3604 28.9979 9.60764C28.9979 8.05727 28.9979 6.50583 28.9979 4.95545C28.9979 4.68198 29.0011 4.40851 28.9979 4.13504C28.9795 2.71023 28.2416 1.39183 27.0205 0.626747C25.9881 -0.0202179 24.8704 -1.89917e-07 23.714 -1.89917e-07C22.3115 -1.89917e-07 20.908 -1.89917e-07 19.5056 -1.89917e-07C15.7676 -1.89917e-07 12.0296 -1.89917e-07 8.29161 -1.89917e-07C7.10495 -1.89917e-07 5.91828 -1.89917e-07 4.73161 -1.89917e-07C4.55361 -1.89917e-07 4.37561 -0.00212836 4.19761 -1.89917e-07C2.70349 0.0191534 1.29028 0.810834 0.551307 2.10157C-0.102439 3.24334 0.006519 4.51279 0.006519 5.76735C0.006519 7.49968 0.006519 9.23308 0.006519 10.9654C0.006519 12.7126 0.006519 14.4599 0.006519 16.2082C0.006519 17.4425 -0.10136 18.6864 0.508156 19.8197C1.20721 21.1211 2.61827 21.9532 4.1016 21.9957C4.30333 22.0011 4.50507 21.9968 4.7068 21.9968C5.88268 21.9968 7.05856 21.9968 8.23444 21.9968C11.9703 21.9968 15.7072 21.9968 19.443 21.9968C20.8552 21.9968 22.2673 21.9968 23.6794 21.9968C24.8327 21.9968 25.9449 22.0245 26.9816 21.3935C28.2255 20.6358 28.9774 19.3015 28.9968 17.865C29.013 16.8349 27.3905 16.8349 27.3765 17.865Z" fill="#4C8BF5"/>
<path d="M3.6571 5.46621C4.8168 6.5271 5.9765 7.588 7.13512 8.64889C8.97445 10.3323 10.8138 12.0146 12.6531 13.698C13.0782 14.0874 13.5032 14.4758 13.9283 14.8653C14.2562 15.1654 14.7471 15.1717 15.075 14.8653C16.2067 13.8087 17.3383 12.7531 18.4689 11.6964C20.2748 10.0099 22.0817 8.32435 23.8876 6.63777C24.3062 6.24725 24.7248 5.85673 25.1433 5.46621C25.9028 4.75753 24.755 3.62747 23.9966 4.33508C22.8649 5.39066 21.7333 6.4473 20.6027 7.50394C18.7968 9.19051 16.9899 10.876 15.184 12.5626C14.7654 12.9531 14.3468 13.3436 13.9283 13.7342C14.3101 13.7342 14.6931 13.7342 15.075 13.7342C13.9153 12.6733 12.7556 11.6124 11.597 10.5515C9.75873 8.8681 7.9194 7.18471 6.08006 5.50132C5.65502 5.11187 5.22998 4.72348 4.80493 4.33402C4.04007 3.63492 2.89008 4.76391 3.6571 5.46621Z" fill="#4C8BF5"/>
<path d="M4.7704 18.6311C6.14909 17.2318 7.52778 15.8336 8.9054 14.4354C9.10389 14.2343 9.30239 14.0332 9.50089 13.831C10.2291 13.0925 9.0834 11.9603 8.35413 12.6999C6.97544 14.0981 5.59783 15.4963 4.21914 16.8956C4.02064 17.0967 3.82214 17.2978 3.62364 17.5C2.89546 18.2385 4.04114 19.3706 4.7704 18.6311Z" fill="#4C8BF5"/>
<path d="M25.6525 17.4989C24.2738 16.1007 22.8962 14.7025 21.5175 13.3032C21.319 13.1021 21.1205 12.901 20.922 12.6988C20.1927 11.9593 19.0471 13.0915 19.7753 13.8299C21.1539 15.2282 22.5316 16.6264 23.9102 18.0256C24.1087 18.2268 24.3072 18.4279 24.5057 18.63C25.2339 19.3706 26.3807 18.2385 25.6525 17.4989Z" fill="#4C8BF5"/>
</g>
<defs>
<clipPath id="clip0_32_15">
<rect width="29" height="22" fill="white"/>
</clipPath>
</defs>
</svg>
