<svg width="32" height="32" viewBox="0 0 32 32" fill="none" xmlns="http://www.w3.org/2000/svg">
<path fill-rule="evenodd" clip-rule="evenodd" d="M6.84809 0H25.1519C28.9333 0 32 3.07399 32 6.8644V25.1305C32 28.9209 28.9333 31.9949 25.1519 31.9949H6.84809C3.06669 32 0 28.9209 0 25.1305V6.8644C0 3.07399 3.06669 0 6.84809 0ZM7.96325 7.93141C6.70109 7.93141 5.67717 8.8409 5.67717 9.96888C5.67717 11.0918 6.69602 12.0064 7.96325 12.0064C9.22034 12.0064 10.2443 11.0918 10.2443 9.96888C10.2443 8.8409 9.22034 7.93141 7.96325 7.93141ZM5.99145 25.979H9.99081V13.8812H5.99145V25.979ZM19.8752 13.1292C17.8831 13.1292 16.6007 14.3741 15.8707 15.3903V13.7542H12.1198V25.9181H15.8707V18.007C15.9772 16.8434 16.4233 15.8933 17.9946 15.8933C20.6203 15.8933 19.9968 18.2102 19.9968 18.2102V25.8571H23.9962C23.9962 25.8571 23.9962 20.5322 23.9962 18.5862C24.0013 15.0092 23.2511 13.1292 19.8752 13.1292Z" fill="#4C8BF5"/>
</svg>
