<svg width="32" height="32" viewBox="0 0 32 32" fill="none" xmlns="http://www.w3.org/2000/svg">
<path d="M16 0C7.17851 0 0 7.17852 0 16C0 24.8215 7.17851 32 16 32C24.8215 32 32 24.8215 32 16C32 7.17852 24.8215 0 16 0ZM3.69036 22.4202C2.85624 20.8025 2.30016 19.0079 2.17378 17.0869H7.35545C7.406 18.5024 7.55766 19.8673 7.78515 21.1564C7.35545 21.485 7.02686 21.9147 6.82464 22.4202H3.69036ZM19.7662 9.60506C20.1453 10.5908 21.0806 11.3239 22.1675 11.4502C22.3444 12.5624 22.4708 13.7251 22.5213 14.9384H17.0616V9.60506H19.7662ZM19.7662 7.48183H17.0616V2.35071C18.4265 2.85624 19.6651 4.27172 20.6003 6.29384C20.2212 6.59716 19.9431 7.00158 19.7662 7.48183ZM14.9131 2.32544V7.48183H10.8689C11.8799 4.82781 13.3207 2.93207 14.9131 2.32544ZM14.9131 9.60506V14.9384H9.4534C9.52923 13.0427 9.78199 11.2227 10.1864 9.60506H14.9131ZM12.2591 22.4202C11.8547 21.4092 10.9447 20.6761 9.80727 20.575C9.63033 19.4629 9.50395 18.3002 9.4534 17.0869H14.9131V22.4202H12.2591ZM7.33017 14.9384H2.17378C2.32543 13.0174 2.85624 11.2227 3.69036 9.60506H8.01264C7.63349 11.248 7.406 13.0427 7.33017 14.9384ZM12.2591 24.5434H14.9131V29.6746C13.5482 29.169 12.3349 27.7536 11.3744 25.7567C11.7788 25.4534 12.0821 25.0237 12.2591 24.5434ZM17.0616 29.6998V24.5687H21.1058C20.1201 27.1975 18.6793 29.0932 17.0616 29.6998ZM17.0616 22.4202V17.0869H22.5213C22.4455 18.9826 22.1927 20.8025 21.7883 22.4202H17.0616ZM24.6446 17.0869H29.8262C29.6746 19.0079 29.1438 20.8025 28.3096 22.4202H23.9874C24.3412 20.7773 24.594 18.9826 24.6446 17.0869ZM24.6446 14.9384C24.594 13.5229 24.4423 12.1833 24.2148 10.8942C24.6445 10.5656 24.9984 10.1359 25.2006 9.60506H28.2844C29.1185 11.2227 29.6746 13.0174 29.8009 14.9384H24.6446ZM26.9194 7.48183H25.2259C24.8215 6.4455 23.8357 5.68721 22.6477 5.61138C22.2433 4.70143 21.763 3.89258 21.2322 3.15956C23.4818 4.09479 25.4281 5.5861 26.9194 7.48183ZM10.7425 3.18484C9.8831 4.34755 9.17535 5.81359 8.594 7.48183H5.05529C6.5466 5.5861 8.49289 4.09479 10.7425 3.18484ZM5.08057 24.5434H6.82464C7.22907 25.5798 8.21485 26.3381 9.35229 26.3886C9.75671 27.2986 10.237 28.1327 10.7678 28.8404C8.49289 27.9305 6.5466 26.4392 5.08057 24.5434ZM21.2322 28.8657C22.0916 27.703 22.7994 26.237 23.3807 24.5687H26.9194C25.4281 26.4392 23.4818 27.9305 21.2322 28.8657Z" fill="#4C8BF5"/>
</svg>
